ffmpeg started on 2025-05-12 at 17:11:44
Report written to "D:\Convert\FFMetrics\reports\ssim_report-6.txt"
Log level: 32
Command line:
ffmpeg -hide_banner -nostdin -i "G:\\\xc0\xed\xe8\xec\xe5\\\xce\xed\xe3\xee\xe8\xed\xe3\xe8\\!_35_\xcb\xe5\xf2\xee_2024\\DreamCast\\\xce\xef\xe5\xf0\xe0\xf6\xe8\xff - \xd1\xe5\xec\xe5\xe9\xea\xe0 \xa8\xe4\xe7\xe0\xea\xf3\xf0\xe0\\[DC] Yozakura-san Chi no Daisakusen - 07_Telegram_HEVC.mkv" -i "G:\\\xc0\xed\xe8\xec\xe5\\\xce\xed\xe3\xee\xe8\xed\xe3\xe8\\!_35_\xcb\xe5\xf2\xee_2024\\DreamCast\\\xce\xef\xe5\xf0\xe0\xf6\xe8\xff - \xd1\xe5\xec\xe5\xe9\xea\xe0 \xa8\xe4\xe7\xe0\xea\xf3\xf0\xe0\\[DC] Yozakura-san Chi no Daisakusen - 07_Telegram.mp4" -lavfi "[0:v]settb=AVTB,setpts=PTS-STARTPTS,format=pix_fmts=yuv420p10,fps=24000/1001,scale=1920:1080:flags=bicubic[main];[1:v]settb=AVTB,setpts=PTS-STARTPTS,format=pix_fmts=yuv420p,fps=24000/1001,scale=1920:1080:flags=bicubic[ref];[main][ref]ssim=eof_action=endall:stats_file='D\\:/Convert/FFMetrics/logs/ssim_logfile-6.txt'" -f null -
Input #0, matroska,webm, from 'G:\Аниме\Онгоинги\!_35_Лето_2024\DreamCast\Операция - Семейка Ёдзакура\[DC] Yozakura-san Chi no Daisakusen - 07_Telegram_HEVC.mkv':
  Metadata:
    COMPATIBLE_BRANDS: isomiso2avc1mp41
    MAJOR_BRAND     : isom
    MINOR_VERSION   : 512
    ENCODER         : Lavf61.7.100
  Duration: 00:24:04.65, start: -0.021000, bitrate: 1113 kb/s
  Stream #0:0: Video: hevc (Main 10), yuv420p10le(tv, bt709, progressive), 1920x1080 [SAR 1:1 DAR 16:9], 23.98 fps, 23.98 tbr, 1k tbn (default)
      Metadata:
        HANDLER_NAME    : VideoHandler
        VENDOR_ID       : [0][0][0][0]
        ENCODER         : Lavc61.19.100 libx265
        BPS             : 915668
        DURATION        : 00:24:04.526708333
        NUMBER_OF_FRAMES: 34634
        NUMBER_OF_BYTES : 165338290
        _STATISTICS_WRITING_APP: mkvpropedit v66.0.0 ('Josie') 64-bit
        _STATISTICS_WRITING_DATE_UTC: 2025-05-08 13:37:21
        _STATISTICS_TAGS: BPS DURATION NUMBER_OF_FRAMES NUMBER_OF_BYTES
  Stream #0:1: Audio: aac (LC), 48000 Hz, stereo, fltp (default)
      Metadata:
        HANDLER_NAME    : SoundHandler
        VENDOR_ID       : [0][0][0][0]
        ENCODER         : Lavc61.19.100 aac
        BPS             : 193798
        DURATION        : 00:24:04.650000000
        NUMBER_OF_FRAMES: 67719
        NUMBER_OF_BYTES : 34996397
        _STATISTICS_WRITING_APP: mkvpropedit v66.0.0 ('Josie') 64-bit
        _STATISTICS_WRITING_DATE_UTC: 2025-05-08 13:37:21
        _STATISTICS_TAGS: BPS DURATION NUMBER_OF_FRAMES NUMBER_OF_BYTES
Input #1, mov,mp4,m4a,3gp,3g2,mj2, from 'G:\Аниме\Онгоинги\!_35_Лето_2024\DreamCast\Операция - Семейка Ёдзакура\[DC] Yozakura-san Chi no Daisakusen - 07_Telegram.mp4':
  Metadata:
    major_brand     : isom
    minor_version   : 512
    compatible_brands: isomiso2avc1mp41
    encoder         : Lavf60.16.100
  Duration: 00:24:04.59, start: 0.000000, bitrate: 3633 kb/s
  Stream #1:0[0x1](und): Video: h264 (High) (avc1 / 0x31637661), yuv420p(tv, bt709, progressive), 1920x1080 [SAR 1:1 DAR 16:9], 3486 kb/s, 23.98 fps, 23.98 tbr, 24k tbn (default)
      Metadata:
        handler_name    : VideoHandler
        vendor_id       : [0][0][0][0]
        encoder         : Lavc60.31.102 h264_qsv
  Stream #1:1[0x2](und): Audio: aac (HE-AACv2) (mp4a / 0x6134706D), 48000 Hz, stereo, fltp, 144 kb/s (default)
      Metadata:
        handler_name    : SoundHandler
        vendor_id       : [0][0][0][0]
Stream mapping:
  Stream #0:0 (hevc) -> settb:default
  Stream #1:0 (h264) -> settb:default
  ssim:default -> Stream #0:0 (wrapped_avframe)
  Stream #0:1 -> #0:1 (aac (native) -> pcm_s16le (native))
Output #0, null, to 'pipe:':
  Metadata:
    COMPATIBLE_BRANDS: isomiso2avc1mp41
    MAJOR_BRAND     : isom
    MINOR_VERSION   : 512
    encoder         : Lavf61.7.100
  Stream #0:0: Video: wrapped_avframe, yuv420p10le(tv, bt709, progressive), 1920x1080 [SAR 1:1 DAR 16:9], q=2-31, 200 kb/s, 23.98 fps, 23.98 tbn
      Metadata:
        encoder         : Lavc61.19.100 wrapped_avframe
  Stream #0:1: Audio: pcm_s16le, 48000 Hz, stereo, s16, 1536 kb/s (default)
      Metadata:
        HANDLER_NAME    : SoundHandler
        VENDOR_ID       : [0][0][0][0]
        _STATISTICS_TAGS: BPS DURATION NUMBER_OF_FRAMES NUMBER_OF_BYTES
        BPS             : 193798
        DURATION        : 00:24:04.650000000
        NUMBER_OF_FRAMES: 67719
        NUMBER_OF_BYTES : 34996397
        _STATISTICS_WRITING_APP: mkvpropedit v66.0.0 ('Josie') 64-bit
        _STATISTICS_WRITING_DATE_UTC: 2025-05-08 13:37:21
        encoder         : Lavc61.19.100 pcm_s16le
frame=  184 fps=0.0 q=-0.0 size=N/A time=00:00:07.67 bitrate=N/A speed=14.8x    frame=  431 fps=413 q=-0.0 size=N/A time=00:00:17.97 bitrate=N/A speed=17.2x    frame=  697 fps=447 q=-0.0 size=N/A time=00:00:29.07 bitrate=N/A speed=18.6x    frame=  968 fps=466 q=-0.0 size=N/A time=00:00:40.37 bitrate=N/A speed=19.5x    frame= 1215 fps=471 q=-0.0 size=N/A time=00:00:50.67 bitrate=N/A speed=19.6x    frame= 1398 fps=450 q=-0.0 size=N/A time=00:00:58.30 bitrate=N/A speed=18.8x    frame= 1620 fps=448 q=-0.0 size=N/A time=00:01:07.56 bitrate=N/A speed=18.7x    frame= 1822 fps=440 q=-0.0 size=N/A time=00:01:15.99 bitrate=N/A speed=18.4x    frame= 2009 fps=432 q=-0.0 size=N/A time=00:01:23.79 bitrate=N/A speed=  18x    frame= 2175 fps=421 q=-0.0 size=N/A time=00:01:30.71 bitrate=N/A speed=17.6x    frame= 2346 fps=414 q=-0.0 size=N/A time=00:01:37.84 bitrate=N/A speed=17.3x    frame= 2505 fps=404 q=-0.0 size=N/A time=00:01:44.47 bitrate=N/A speed=16.9x    frame= 2674 fps=399 q=-0.0 size=N/A time=00:01:51.52 bitrate=N/A speed=16.6x    frame= 2878 fps=398 q=-0.0 size=N/A time=00:02:00.03 bitrate=N/A speed=16.6x    frame= 3073 fps=397 q=-0.0 size=N/A time=00:02:08.16 bitrate=N/A speed=16.5x    frame= 3247 fps=393 q=-0.0 size=N/A time=00:02:15.42 bitrate=N/A speed=16.4x    frame= 3478 fps=396 q=-0.0 size=N/A time=00:02:25.06 bitrate=N/A speed=16.5x    frame= 3742 fps=403 q=-0.0 size=N/A time=00:02:36.07 bitrate=N/A speed=16.8x    frame= 4031 fps=411 q=-0.0 size=N/A time=00:02:48.12 bitrate=N/A speed=17.1x    frame= 4289 fps=415 q=-0.0 size=N/A time=00:02:58.88 bitrate=N/A speed=17.3x    frame= 4552 fps=420 q=-0.0 size=N/A time=00:03:09.85 bitrate=N/A speed=17.5x    frame= 4815 fps=424 q=-0.0 size=N/A time=00:03:20.82 bitrate=N/A speed=17.7x    frame= 5052 fps=426 q=-0.0 size=N/A time=00:03:30.71 bitrate=N/A speed=17.8x    frame= 5338 fps=431 q=-0.0 size=N/A time=00:03:42.63 bitrate=N/A speed=  18x    frame= 5596 fps=434 q=-0.0 size=N/A time=00:03:53.39 bitrate=N/A speed=18.1x    frame= 5857 fps=437 q=-0.0 size=N/A time=00:04:04.28 bitrate=N/A speed=18.2x    frame= 6086 fps=437 q=-0.0 size=N/A time=00:04:13.83 bitrate=N/A speed=18.2x    frame= 6320 fps=437 q=-0.0 size=N/A time=00:04:23.59 bitrate=N/A speed=18.2x    frame= 6598 fps=441 q=-0.0 size=N/A time=00:04:35.19 bitrate=N/A speed=18.4x    frame= 6840 fps=442 q=-0.0 size=N/A time=00:04:45.28 bitrate=N/A speed=18.4x    frame= 7103 fps=444 q=-0.0 size=N/A time=00:04:56.25 bitrate=N/A speed=18.5x    frame= 7362 fps=446 q=-0.0 size=N/A time=00:05:07.05 bitrate=N/A speed=18.6x    frame= 7634 fps=449 q=-0.0 size=N/A time=00:05:18.40 bitrate=N/A speed=18.7x    frame= 7902 fps=451 q=-0.0 size=N/A time=00:05:29.57 bitrate=N/A speed=18.8x    frame= 8179 fps=453 q=-0.0 size=N/A time=00:05:41.13 bitrate=N/A speed=18.9x    frame= 8446 fps=455 q=-0.0 size=N/A time=00:05:52.26 bitrate=N/A speed=  19x    frame= 8735 fps=458 q=-0.0 size=N/A time=00:06:04.32 bitrate=N/A speed=19.1x    frame= 9013 fps=460 q=-0.0 size=N/A time=00:06:15.91 bitrate=N/A speed=19.2x    frame= 9288 fps=462 q=-0.0 size=N/A time=00:06:27.38 bitrate=N/A speed=19.3x    frame= 9564 fps=463 q=-0.0 size=N/A time=00:06:38.89 bitrate=N/A speed=19.3x    frame= 9824 fps=465 q=-0.0 size=N/A time=00:06:49.74 bitrate=N/A speed=19.4x    frame=10074 fps=465 q=-0.0 size=N/A time=00:07:00.16 bitrate=N/A speed=19.4x    frame=10339 fps=466 q=-0.0 size=N/A time=00:07:11.22 bitrate=N/A speed=19.4x    frame=10587 fps=466 q=-0.0 size=N/A time=00:07:21.56 bitrate=N/A speed=19.5x    frame=10829 fps=467 q=-0.0 size=N/A time=00:07:31.65 bitrate=N/A speed=19.5x    frame=11096 fps=468 q=-0.0 size=N/A time=00:07:42.79 bitrate=N/A speed=19.5x    frame=11342 fps=468 q=-0.0 size=N/A time=00:07:53.05 bitrate=N/A speed=19.5x    frame=11583 fps=468 q=-0.0 size=N/A time=00:08:03.10 bitrate=N/A speed=19.5x    frame=11828 fps=468 q=-0.0 size=N/A time=00:08:13.32 bitrate=N/A speed=19.5x    frame=12098 fps=469 q=-0.0 size=N/A time=00:08:24.58 bitrate=N/A speed=19.6x    frame=12344 fps=469 q=-0.0 size=N/A time=00:08:34.84 bitrate=N/A speed=19.6x    frame=12577 fps=469 q=-0.0 size=N/A time=00:08:44.56 bitrate=N/A speed=19.6x    frame=12844 fps=470 q=-0.0 size=N/A time=00:08:55.70 bitrate=N/A speed=19.6x    frame=13085 fps=470 q=-0.0 size=N/A time=00:09:05.75 bitrate=N/A speed=19.6x    frame=13337 fps=470 q=-0.0 size=N/A time=00:09:16.26 bitrate=N/A speed=19.6x    frame=13587 fps=470 q=-0.0 size=N/A time=00:09:26.69 bitrate=N/A speed=19.6x    frame=13868 fps=472 q=-0.0 size=N/A time=00:09:38.41 bitrate=N/A speed=19.7x    frame=14126 fps=472 q=-0.0 size=N/A time=00:09:49.17 bitrate=N/A speed=19.7x    frame=14397 fps=473 q=-0.0 size=N/A time=00:10:00.47 bitrate=N/A speed=19.7x    frame=14662 fps=474 q=-0.0 size=N/A time=00:10:11.52 bitrate=N/A speed=19.8x    frame=14939 fps=475 q=-0.0 size=N/A time=00:10:23.08 bitrate=N/A speed=19.8x    frame=15220 fps=476 q=-0.0 size=N/A time=00:10:34.80 bitrate=N/A speed=19.9x    frame=15485 fps=476 q=-0.0 size=N/A time=00:10:45.85 bitrate=N/A speed=19.9x    frame=15770 fps=478 q=-0.0 size=N/A time=00:10:57.74 bitrate=N/A speed=19.9x    frame=16024 fps=478 q=-0.0 size=N/A time=00:11:08.33 bitrate=N/A speed=19.9x    frame=16298 fps=479 q=-0.0 size=N/A time=00:11:19.76 bitrate=N/A speed=  20x    frame=16546 fps=479 q=-0.0 size=N/A time=00:11:30.10 bitrate=N/A speed=  20x    frame=16820 fps=479 q=-0.0 size=N/A time=00:11:41.53 bitrate=N/A speed=  20x    frame=17060 fps=479 q=-0.0 size=N/A time=00:11:51.54 bitrate=N/A speed=  20x    frame=17287 fps=479 q=-0.0 size=N/A time=00:12:01.01 bitrate=N/A speed=  20x    frame=17537 fps=479 q=-0.0 size=N/A time=00:12:11.43 bitrate=N/A speed=  20x    frame=17813 fps=479 q=-0.0 size=N/A time=00:12:22.95 bitrate=N/A speed=  20x    frame=18076 fps=480 q=-0.0 size=N/A time=00:12:33.91 bitrate=N/A speed=  20x    frame=18346 fps=480 q=-0.0 size=N/A time=00:12:45.18 bitrate=N/A speed=  20x    frame=18610 fps=481 q=-0.0 size=N/A time=00:12:56.19 bitrate=N/A speed=20.1x    frame=18860 fps=481 q=-0.0 size=N/A time=00:13:06.61 bitrate=N/A speed=20.1x    frame=19135 fps=482 q=-0.0 size=N/A time=00:13:18.08 bitrate=N/A speed=20.1x    frame=19399 fps=482 q=-0.0 size=N/A time=00:13:29.09 bitrate=N/A speed=20.1x    frame=19679 fps=483 q=-0.0 size=N/A time=00:13:40.77 bitrate=N/A speed=20.1x    frame=19930 fps=483 q=-0.0 size=N/A time=00:13:51.24 bitrate=N/A speed=20.1x    frame=20191 fps=483 q=-0.0 size=N/A time=00:14:02.13 bitrate=N/A speed=20.1x    frame=20432 fps=483 q=-0.0 size=N/A time=00:14:12.18 bitrate=N/A speed=20.1x    frame=20664 fps=482 q=-0.0 size=N/A time=00:14:21.86 bitrate=N/A speed=20.1x    frame=20926 fps=483 q=-0.0 size=N/A time=00:14:32.78 bitrate=N/A speed=20.1x    frame=21184 fps=483 q=-0.0 size=N/A time=00:14:43.54 bitrate=N/A speed=20.1x    frame=21456 fps=483 q=-0.0 size=N/A time=00:14:54.89 bitrate=N/A speed=20.2x    frame=21684 fps=483 q=-0.0 size=N/A time=00:15:04.40 bitrate=N/A speed=20.1x    frame=21954 fps=483 q=-0.0 size=N/A time=00:15:15.66 bitrate=N/A speed=20.2x    frame=22201 fps=483 q=-0.0 size=N/A time=00:15:25.96 bitrate=N/A speed=20.2x    frame=22387 fps=482 q=-0.0 size=N/A time=00:15:33.72 bitrate=N/A speed=20.1x    frame=22632 fps=482 q=-0.0 size=N/A time=00:15:43.94 bitrate=N/A speed=20.1x    frame=22828 fps=481 q=-0.0 size=N/A time=00:15:52.11 bitrate=N/A speed=20.1x    frame=23047 fps=480 q=-0.0 size=N/A time=00:16:01.25 bitrate=N/A speed=  20x    frame=23270 fps=480 q=-0.0 size=N/A time=00:16:10.55 bitrate=N/A speed=  20x    frame=23505 fps=480 q=-0.0 size=N/A time=00:16:20.35 bitrate=N/A speed=  20x    frame=23711 fps=479 q=-0.0 size=N/A time=00:16:28.94 bitrate=N/A speed=  20x    frame=23911 fps=478 q=-0.0 size=N/A time=00:16:37.28 bitrate=N/A speed=19.9x    frame=24126 fps=477 q=-0.0 size=N/A time=00:16:46.25 bitrate=N/A speed=19.9x    frame=24371 fps=477 q=-0.0 size=N/A time=00:16:56.47 bitrate=N/A speed=19.9x    frame=24562 fps=476 q=-0.0 size=N/A time=00:17:04.44 bitrate=N/A speed=19.9x    frame=24776 fps=475 q=-0.0 size=N/A time=00:17:13.36 bitrate=N/A speed=19.8x    frame=25020 fps=475 q=-0.0 size=N/A time=00:17:23.54 bitrate=N/A speed=19.8x    frame=25220 fps=475 q=-0.0 size=N/A time=00:17:31.88 bitrate=N/A speed=19.8x    frame=25436 fps=474 q=-0.0 size=N/A time=00:17:40.89 bitrate=N/A speed=19.8x    frame=25701 fps=474 q=-0.0 size=N/A time=00:17:51.94 bitrate=N/A speed=19.8x    frame=25981 fps=475 q=-0.0 size=N/A time=00:18:03.62 bitrate=N/A speed=19.8x    frame=26199 fps=475 q=-0.0 size=N/A time=00:18:12.71 bitrate=N/A speed=19.8x    frame=26462 fps=475 q=-0.0 size=N/A time=00:18:23.68 bitrate=N/A speed=19.8x    frame=26710 fps=475 q=-0.0 size=N/A time=00:18:34.02 bitrate=N/A speed=19.8x    frame=26956 fps=475 q=-0.0 size=N/A time=00:18:44.28 bitrate=N/A speed=19.8x    frame=27162 fps=474 q=-0.0 size=N/A time=00:18:52.88 bitrate=N/A speed=19.8x    frame=27418 fps=475 q=-0.0 size=N/A time=00:19:03.55 bitrate=N/A speed=19.8x    frame=27656 fps=474 q=-0.0 size=N/A time=00:19:13.48 bitrate=N/A speed=19.8x    frame=27910 fps=474 q=-0.0 size=N/A time=00:19:24.07 bitrate=N/A speed=19.8x    frame=28159 fps=475 q=-0.0 size=N/A time=00:19:34.46 bitrate=N/A speed=19.8x    frame=28426 fps=475 q=-0.0 size=N/A time=00:19:45.60 bitrate=N/A speed=19.8x    frame=28700 fps=475 q=-0.0 size=N/A time=00:19:57.02 bitrate=N/A speed=19.8x    frame=28958 fps=476 q=-0.0 size=N/A time=00:20:07.78 bitrate=N/A speed=19.8x    frame=29214 fps=476 q=-0.0 size=N/A time=00:20:18.46 bitrate=N/A speed=19.8x    frame=29453 fps=476 q=-0.0 size=N/A time=00:20:28.43 bitrate=N/A speed=19.8x    frame=29700 fps=476 q=-0.0 size=N/A time=00:20:38.73 bitrate=N/A speed=19.8x    frame=29937 fps=476 q=-0.0 size=N/A time=00:20:48.62 bitrate=N/A speed=19.8x    frame=30175 fps=476 q=-0.0 size=N/A time=00:20:58.54 bitrate=N/A speed=19.8x    frame=30435 fps=476 q=-0.0 size=N/A time=00:21:09.39 bitrate=N/A speed=19.8x    frame=30700 fps=476 q=-0.0 size=N/A time=00:21:20.44 bitrate=N/A speed=19.9x    frame=30969 fps=476 q=-0.0 size=N/A time=00:21:31.66 bitrate=N/A speed=19.9x    frame=31241 fps=477 q=-0.0 size=N/A time=00:21:43.01 bitrate=N/A speed=19.9x    frame=31495 fps=477 q=-0.0 size=N/A time=00:21:53.60 bitrate=N/A speed=19.9x    frame=31734 fps=477 q=-0.0 size=N/A time=00:22:03.57 bitrate=N/A speed=19.9x    frame=31998 fps=477 q=-0.0 size=N/A time=00:22:14.58 bitrate=N/A speed=19.9x    frame=32228 fps=477 q=-0.0 size=N/A time=00:22:24.17 bitrate=N/A speed=19.9x    frame=32456 fps=477 q=-0.0 size=N/A time=00:22:33.68 bitrate=N/A speed=19.9x    frame=32698 fps=477 q=-0.0 size=N/A time=00:22:43.77 bitrate=N/A speed=19.9x    frame=32929 fps=476 q=-0.0 size=N/A time=00:22:53.41 bitrate=N/A speed=19.9x    frame=33164 fps=476 q=-0.0 size=N/A time=00:23:03.21 bitrate=N/A speed=19.9x    frame=33379 fps=476 q=-0.0 size=N/A time=00:23:12.18 bitrate=N/A speed=19.8x    frame=33579 fps=475 q=-0.0 size=N/A time=00:23:20.52 bitrate=N/A speed=19.8x    frame=33760 fps=474 q=-0.0 size=N/A time=00:23:28.07 bitrate=N/A speed=19.8x    frame=33931 fps=473 q=-0.0 size=N/A time=00:23:35.20 bitrate=N/A speed=19.7x    frame=34144 fps=473 q=-0.0 size=N/A time=00:23:44.08 bitrate=N/A speed=19.7x    frame=34308 fps=472 q=-0.0 size=N/A time=00:23:50.92 bitrate=N/A speed=19.7x    frame=34518 fps=471 q=-0.0 size=N/A time=00:23:59.68 bitrate=N/A speed=19.6x    [Parsed_ssim_10 @ 0000024ad599d340] SSIM Y:0.995532 (23.498658) U:0.994553 (22.638060) V:0.994420 (22.533398) All:0.995183 (23.172435)
[out#0/null @ 0000024ac858eec0] video:14882KiB audio:270876KiB subtitle:0KiB other streams:0KiB global headers:0KiB muxing overhead: unknown
frame=34634 fps=471 q=-0.0 Lsize=N/A time=00:24:04.52 bitrate=N/A speed=19.7x    
